# Blender 4.0.2
# www.blender.org
mtllib building.mtl
o building
v 1.000000 4.000000 -1.000000
v 1.000000 0.000000 -1.000000
v 1.000000 4.000000 1.000000
v 1.000000 0.000000 1.000000
v -1.000000 4.000000 -1.000000
v -1.000000 0.000000 -1.000000
v -1.000000 4.000000 1.000000
v -1.000000 0.000000 1.000000
v -0.878786 0.070691 -0.276718
v -0.878786 0.070691 0.276718
v 1.000000 4.000000 -0.333333
v 1.000000 4.000000 0.333333
v -1.000000 4.000000 0.333333
v -1.000000 4.000000 -0.333333
v 0.950936 0.042046 0.297853
v 0.950936 0.042046 -0.297853
v 1.000000 1.111558 -1.000000
v -1.000000 1.111558 1.000000
v 1.000000 1.111558 1.000000
v -1.000000 1.111558 -1.000000
v 0.950936 1.011685 -0.297853
v 0.950936 1.011685 0.297853
v -0.878786 0.955787 0.276718
v -0.878786 0.955787 -0.276718
v 1.000000 0.000000 0.333333
v 1.000000 0.000000 -0.333333
v 1.000000 1.111558 -0.333333
v 1.000000 1.111558 0.333333
v -1.000000 0.000000 -0.333333
v -1.000000 0.000000 0.333333
v -1.000000 1.111558 0.333333
v -1.000000 1.111558 -0.333333
v 1.000000 0.000000 -2.591754
v -1.000000 0.000000 -2.591754
v 1.000000 1.111558 -2.591754
v -1.000000 1.111558 -2.591754
v -0.926731 0.146538 -2.810936
v -0.926731 0.965020 -2.810936
v 0.926731 0.965020 -2.810936
v 0.926731 0.146538 -2.810936
v -1.219182 0.146538 -1.073269
v -1.219182 0.965020 -1.073269
v -1.219182 0.965020 -2.518485
v -1.219182 0.146538 -2.518485
v 1.219182 0.965020 -1.073269
v 1.219182 0.146538 -1.073269
v 1.219182 0.146538 -2.518485
v 1.219182 0.965020 -2.518485
v -1.000000 1.111558 -2.810936
v -1.000000 0.000000 -2.810936
v 1.000000 1.111558 -2.810936
v 1.000000 0.000000 -2.810936
v -1.219182 1.111558 -1.000000
v -1.219182 0.000000 -1.000000
v -1.219182 1.111558 -2.591754
v -1.219182 0.000000 -2.591754
v 1.219182 0.000000 -1.000000
v 1.219182 1.111558 -1.000000
v 1.219182 0.000000 -2.591754
v 1.219182 1.111558 -2.591754
v -0.926731 0.146538 -2.610253
v -0.926731 0.965020 -2.610253
v 0.926731 0.965020 -2.610253
v 0.926731 0.146538 -2.610253
v -1.018499 0.146538 -1.073269
v -1.018499 0.965020 -1.073269
v -1.018499 0.965020 -2.518485
v -1.018499 0.146538 -2.518485
v 1.018499 0.965020 -1.073269
v 1.018499 0.146538 -1.073269
v 1.018499 0.146538 -2.518485
v 1.018499 0.965020 -2.518485
vn -0.0000 1.0000 -0.0000
vn -0.0000 -0.0000 1.0000
vn -1.0000 -0.0000 -0.0000
vn -0.0000 -1.0000 -0.0000
vn 1.0000 -0.0000 -0.0000
vn -0.0000 -0.0000 -1.0000
vn 0.6507 0.7593 -0.0000
vn 0.5860 -0.0000 0.8103
vn 0.5860 -0.0000 -0.8103
vn 0.8975 -0.4409 -0.0000
vn -0.5038 0.8638 -0.0000
vn -0.4232 -0.0000 -0.9060
vn -0.4232 -0.0000 0.9060
vn -0.7892 -0.6141 -0.0000
vt 0.625000 0.666667
vt 0.875000 0.666667
vt 0.875000 0.750000
vt 0.625000 0.750000
vt 0.444472 0.750000
vt 0.625000 1.000000
vt 0.444472 1.000000
vt 0.444472 0.166667
vt 0.625000 0.166667
vt 0.625000 0.250000
vt 0.444472 0.250000
vt 0.125000 0.666667
vt 0.375000 0.666667
vt 0.375000 0.750000
vt 0.125000 0.750000
vt 0.444472 0.666667
vt 0.625000 0.500000
vt 0.444472 0.500000
vt 0.625000 0.583333
vt 0.444472 0.583333
vt 0.125000 0.500000
vt 0.375000 0.500000
vt 0.375000 0.583333
vt 0.125000 0.583333
vt 0.444472 0.000000
vt 0.625000 0.000000
vt 0.625000 0.083333
vt 0.444472 0.083333
vt 0.875000 0.500000
vt 0.875000 0.583333
vt 0.382077 0.090410
vt 0.437395 0.090410
vt 0.437395 0.159590
vt 0.382077 0.159590
vt 0.375000 0.000000
vt 0.375000 0.083333
vt 0.379435 0.587768
vt 0.440037 0.587768
vt 0.440037 0.662232
vt 0.379435 0.662232
vt 0.375000 0.166667
vt 0.375000 0.250000
vt 0.375000 1.000000
vt 0.435314 0.259159
vt 0.384159 0.259159
vt 0.435314 0.490841
vt 0.384159 0.490841
vt 0.435314 0.250000
vt 0.384159 0.250000
vt 0.384159 0.500000
vt 0.435314 0.500000
vt 0.384159 0.500000
s 0
usemtl Material
f 12/1/1 13/2/1 7/3/1 3/4/1
f 19/5/2 3/4/2 7/6/2 18/7/2
f 32/8/3 14/9/3 5/10/3 20/11/3
f 30/12/4 25/13/4 4/14/4 8/15/4
f 28/16/5 12/1/5 3/4/5 19/5/5
f 20/11/6 5/10/6 1/17/6 17/18/6
f 17/18/5 1/17/5 11/19/5 27/20/5
f 27/20/5 11/19/5 12/1/5 28/16/5
f 6/21/4 2/22/4 26/23/4 29/24/4
f 29/24/4 26/23/4 25/13/4 30/12/4
f 18/25/3 7/26/3 13/27/3 31/28/3
f 31/28/3 13/27/3 14/9/3 32/8/3
f 1/17/1 5/29/1 14/30/1 11/19/1
f 11/19/1 14/30/1 13/2/1 12/1/1
f 10/31/3 23/32/3 24/33/3 9/34/3
f 8/35/3 18/25/3 31/28/3 30/36/3
f 16/37/5 21/38/5 22/39/5 15/40/5
f 2/22/5 17/18/5 27/20/5 26/23/5
f 20/11/1 17/18/1 35/18/1 36/11/1
f 25/13/5 28/16/5 19/5/5 4/14/5
f 29/41/3 32/8/3 20/11/3 6/42/3
f 4/14/2 19/5/2 18/7/2 8/43/2
f 16/37/7 15/40/7 25/13/7 26/23/7
f 21/38/8 16/37/8 26/23/8 27/20/8
f 15/40/9 22/39/9 28/16/9 25/13/9
f 22/39/10 21/38/10 27/20/10 28/16/10
f 10/31/11 9/34/11 29/41/11 30/36/11
f 23/32/12 10/31/12 30/36/12 31/28/12
f 9/34/13 24/33/13 32/8/13 29/41/13
f 24/33/14 23/32/14 31/28/14 32/8/14
f 2/22/4 6/21/4 34/21/4 33/22/4
f 36/11/3 49/11/3 50/42/3 34/42/3
f 35/18/1 51/18/1 49/11/1 36/11/1
f 33/22/5 52/22/5 51/18/5 35/18/5
f 34/42/4 50/42/4 52/22/4 33/22/4
f 20/11/2 53/11/2 54/42/2 6/42/2
f 36/11/1 55/11/1 53/11/1 20/11/1
f 34/42/6 56/42/6 55/11/6 36/11/6
f 6/42/4 54/42/4 56/42/4 34/42/4
f 2/22/2 57/22/2 58/18/2 17/18/2
f 33/22/4 59/22/4 57/22/4 2/22/4
f 35/18/6 60/18/6 59/22/6 33/22/6
f 17/18/1 58/18/1 60/18/1 35/18/1
f 38/44/6 37/45/6 50/42/6 49/11/6
f 39/46/6 38/44/6 49/11/6 51/18/6
f 40/47/6 39/46/6 51/18/6 52/22/6
f 37/45/6 40/47/6 52/22/6 50/42/6
f 42/48/3 41/49/3 54/42/3 53/11/3
f 43/48/3 42/48/3 53/11/3 55/11/3
f 44/49/3 43/48/3 55/11/3 56/42/3
f 41/49/3 44/49/3 56/42/3 54/42/3
f 46/50/5 45/51/5 58/18/5 57/22/5
f 47/52/5 46/50/5 57/22/5 59/22/5
f 48/51/5 47/52/5 59/22/5 60/18/5
f 45/51/5 48/51/5 60/18/5 58/18/5
f 61/45/6 62/44/6 63/46/6 64/47/6
f 38/44/5 62/44/5 61/45/5 37/45/5
f 39/46/4 63/46/4 62/44/4 38/44/4
f 40/47/3 64/47/3 63/46/3 39/46/3
f 37/45/1 61/45/1 64/47/1 40/47/1
f 65/49/3 66/48/3 67/48/3 68/49/3
f 42/48/6 66/48/6 65/49/6 41/49/6
f 43/48/4 67/48/4 66/48/4 42/48/4
f 44/49/2 68/49/2 67/48/2 43/48/2
f 41/49/1 65/49/1 68/49/1 44/49/1
f 69/51/5 70/50/5 71/52/5 72/51/5
f 46/50/6 70/50/6 69/51/6 45/51/6
f 47/52/1 71/52/1 70/50/1 46/50/1
f 48/51/2 72/51/2 71/52/2 47/52/2
f 45/51/4 69/51/4 72/51/4 48/51/4
