# Blender 4.0.2
# www.blender.org
mtllib ultrsalowpolycar.mtl
o Cube
v 1.697057 2.737679 0.041616
v 1.697057 2.155435 0.041616
v 1.697057 2.737679 1.723483
v 1.697057 2.155435 2.372505
v 0.373537 2.737679 0.041616
v 0.373537 2.155435 0.041616
v 0.373537 2.737679 1.723483
v 0.373537 2.155435 2.372505
v 0.373537 1.766201 0.041616
v 0.373537 1.766201 2.372505
v 1.697057 1.766201 0.041616
v 1.697057 1.766201 2.372505
v 1.534161 1.750000 1.805589
v 1.665839 1.750000 1.805589
v 1.534161 1.712072 1.809325
v 1.665839 1.712072 1.809325
v 1.534161 1.675602 1.820388
v 1.665839 1.675602 1.820388
v 1.534161 1.641991 1.838353
v 1.665839 1.641991 1.838353
v 1.534161 1.612531 1.862531
v 1.665839 1.612531 1.862531
v 1.534161 1.588353 1.891991
v 1.665839 1.588353 1.891991
v 1.534161 1.570388 1.925602
v 1.665839 1.570388 1.925602
v 1.534161 1.559325 1.962072
v 1.665839 1.559325 1.962072
v 1.534161 1.555589 2.000000
v 1.665839 1.555589 2.000000
v 1.534161 1.559325 2.037928
v 1.665839 1.559325 2.037928
v 1.534161 1.570388 2.074398
v 1.665839 1.570388 2.074398
v 1.534161 1.588353 2.108009
v 1.665839 1.588353 2.108009
v 1.534161 1.612531 2.137469
v 1.665839 1.612531 2.137469
v 1.534161 1.641991 2.161647
v 1.665839 1.641991 2.161647
v 1.534161 1.675602 2.179612
v 1.665839 1.675602 2.179612
v 1.534161 1.712072 2.190675
v 1.665839 1.712072 2.190675
v 1.534161 1.750000 2.194411
v 1.665839 1.750000 2.194411
v 1.534161 1.787928 2.190675
v 1.665839 1.787928 2.190675
v 1.534161 1.824398 2.179612
v 1.665839 1.824398 2.179612
v 1.534161 1.858009 2.161647
v 1.665839 1.858009 2.161647
v 1.534161 1.887469 2.137469
v 1.665839 1.887469 2.137469
v 1.534161 1.911647 2.108009
v 1.665839 1.911647 2.108009
v 1.534161 1.929612 2.074398
v 1.665839 1.929612 2.074398
v 1.534161 1.940675 2.037928
v 1.665839 1.940675 2.037928
v 1.534161 1.944411 2.000000
v 1.665839 1.944411 2.000000
v 1.534161 1.940675 1.962072
v 1.665839 1.940675 1.962072
v 1.534161 1.929612 1.925602
v 1.665839 1.929612 1.925602
v 1.534161 1.911647 1.891991
v 1.665839 1.911647 1.891991
v 1.534161 1.887469 1.862531
v 1.665839 1.887469 1.862531
v 1.534161 1.858009 1.838353
v 1.665839 1.858009 1.838353
v 1.534161 1.824398 1.820388
v 1.665839 1.824398 1.820388
v 1.534161 1.787928 1.809325
v 1.665839 1.787928 1.809325
v 1.534161 1.750000 0.205589
v 1.665839 1.750000 0.205589
v 1.534161 1.712072 0.209325
v 1.665839 1.712072 0.209325
v 1.534161 1.675602 0.220388
v 1.665839 1.675602 0.220388
v 1.534161 1.641991 0.238353
v 1.665839 1.641991 0.238353
v 1.534161 1.612531 0.262531
v 1.665839 1.612531 0.262531
v 1.534161 1.588353 0.291991
v 1.665839 1.588353 0.291991
v 1.534161 1.570388 0.325602
v 1.665839 1.570388 0.325602
v 1.534161 1.559325 0.362072
v 1.665839 1.559325 0.362072
v 1.534161 1.555589 0.400000
v 1.665839 1.555589 0.400000
v 1.534161 1.559325 0.437928
v 1.665839 1.559325 0.437928
v 1.534161 1.570388 0.474398
v 1.665839 1.570388 0.474398
v 1.534161 1.588353 0.508009
v 1.665839 1.588353 0.508009
v 1.534161 1.612531 0.537469
v 1.665839 1.612531 0.537469
v 1.534161 1.641991 0.561647
v 1.665839 1.641991 0.561647
v 1.534161 1.675602 0.579612
v 1.665839 1.675602 0.579612
v 1.534161 1.712072 0.590675
v 1.665839 1.712072 0.590675
v 1.534161 1.750000 0.594411
v 1.665839 1.750000 0.594411
v 1.534161 1.787928 0.590675
v 1.665839 1.787928 0.590675
v 1.534161 1.824398 0.579612
v 1.665839 1.824398 0.579612
v 1.534161 1.858009 0.561647
v 1.665839 1.858009 0.561647
v 1.534161 1.887469 0.537469
v 1.665839 1.887469 0.537469
v 1.534161 1.911647 0.508009
v 1.665839 1.911647 0.508009
v 1.534161 1.929612 0.474398
v 1.665839 1.929612 0.474398
v 1.534161 1.940675 0.437928
v 1.665839 1.940675 0.437928
v 1.534161 1.944411 0.400000
v 1.665839 1.944411 0.400000
v 1.534161 1.940675 0.362072
v 1.665839 1.940675 0.362072
v 1.534161 1.929612 0.325602
v 1.665839 1.929612 0.325602
v 1.534161 1.911647 0.291991
v 1.665839 1.911647 0.291991
v 1.534161 1.887469 0.262531
v 1.665839 1.887469 0.262531
v 1.534161 1.858009 0.238353
v 1.665839 1.858009 0.238353
v 1.534161 1.824398 0.220388
v 1.665839 1.824398 0.220388
v 1.534161 1.787928 0.209325
v 1.665839 1.787928 0.209325
v 0.434161 1.750000 0.205589
v 0.565839 1.750000 0.205589
v 0.434161 1.712072 0.209325
v 0.565839 1.712072 0.209325
v 0.434161 1.675602 0.220388
v 0.565839 1.675602 0.220388
v 0.434161 1.641991 0.238353
v 0.565839 1.641991 0.238353
v 0.434161 1.612531 0.262531
v 0.565839 1.612531 0.262531
v 0.434161 1.588353 0.291991
v 0.565839 1.588353 0.291991
v 0.434161 1.570388 0.325602
v 0.565839 1.570388 0.325602
v 0.434161 1.559325 0.362072
v 0.565839 1.559325 0.362072
v 0.434161 1.555589 0.400000
v 0.565839 1.555589 0.400000
v 0.434161 1.559325 0.437928
v 0.565839 1.559325 0.437928
v 0.434161 1.570388 0.474398
v 0.565839 1.570388 0.474398
v 0.434161 1.588353 0.508009
v 0.565839 1.588353 0.508009
v 0.434161 1.612531 0.537469
v 0.565839 1.612531 0.537469
v 0.434161 1.641991 0.561647
v 0.565839 1.641991 0.561647
v 0.434161 1.675602 0.579612
v 0.565839 1.675602 0.579612
v 0.434161 1.712072 0.590675
v 0.565839 1.712072 0.590675
v 0.434161 1.750000 0.594411
v 0.565839 1.750000 0.594411
v 0.434161 1.787928 0.590675
v 0.565839 1.787928 0.590675
v 0.434161 1.824398 0.579612
v 0.565839 1.824398 0.579612
v 0.434161 1.858009 0.561647
v 0.565839 1.858009 0.561647
v 0.434161 1.887469 0.537469
v 0.565839 1.887469 0.537469
v 0.434161 1.911647 0.508009
v 0.565839 1.911647 0.508009
v 0.434161 1.929612 0.474398
v 0.565839 1.929612 0.474398
v 0.434161 1.940675 0.437928
v 0.565839 1.940675 0.437928
v 0.434161 1.944411 0.400000
v 0.565839 1.944411 0.400000
v 0.434161 1.940675 0.362072
v 0.565839 1.940675 0.362072
v 0.434161 1.929612 0.325602
v 0.565839 1.929612 0.325602
v 0.434161 1.911647 0.291991
v 0.565839 1.911647 0.291991
v 0.434161 1.887469 0.262531
v 0.565839 1.887469 0.262531
v 0.434161 1.858009 0.238353
v 0.565839 1.858009 0.238353
v 0.434161 1.824398 0.220388
v 0.565839 1.824398 0.220388
v 0.434161 1.787928 0.209325
v 0.565839 1.787928 0.209325
v 0.434161 1.750000 1.805589
v 0.565839 1.750000 1.805589
v 0.434161 1.712072 1.809325
v 0.565839 1.712072 1.809325
v 0.434161 1.675602 1.820388
v 0.565839 1.675602 1.820388
v 0.434161 1.641991 1.838353
v 0.565839 1.641991 1.838353
v 0.434161 1.612531 1.862531
v 0.565839 1.612531 1.862531
v 0.434161 1.588353 1.891991
v 0.565839 1.588353 1.891991
v 0.434161 1.570388 1.925602
v 0.565839 1.570388 1.925602
v 0.434161 1.559325 1.962072
v 0.565839 1.559325 1.962072
v 0.434161 1.555589 2.000000
v 0.565839 1.555589 2.000000
v 0.434161 1.559325 2.037928
v 0.565839 1.559325 2.037928
v 0.434161 1.570388 2.074398
v 0.565839 1.570388 2.074398
v 0.434161 1.588353 2.108009
v 0.565839 1.588353 2.108009
v 0.434161 1.612531 2.137469
v 0.565839 1.612531 2.137469
v 0.434161 1.641991 2.161647
v 0.565839 1.641991 2.161647
v 0.434161 1.675602 2.179612
v 0.565839 1.675602 2.179612
v 0.434161 1.712072 2.190675
v 0.565839 1.712072 2.190675
v 0.434161 1.750000 2.194411
v 0.565839 1.750000 2.194411
v 0.434161 1.787928 2.190675
v 0.565839 1.787928 2.190675
v 0.434161 1.824398 2.179612
v 0.565839 1.824398 2.179612
v 0.434161 1.858009 2.161647
v 0.565839 1.858009 2.161647
v 0.434161 1.887469 2.137469
v 0.565839 1.887469 2.137469
v 0.434161 1.911647 2.108009
v 0.565839 1.911647 2.108009
v 0.434161 1.929612 2.074398
v 0.565839 1.929612 2.074398
v 0.434161 1.940675 2.037928
v 0.565839 1.940675 2.037928
v 0.434161 1.944411 2.000000
v 0.565839 1.944411 2.000000
v 0.434161 1.940675 1.962072
v 0.565839 1.940675 1.962072
v 0.434161 1.929612 1.925602
v 0.565839 1.929612 1.925602
v 0.434161 1.911647 1.891991
v 0.565839 1.911647 1.891991
v 0.434161 1.887469 1.862531
v 0.565839 1.887469 1.862531
v 0.434161 1.858009 1.838353
v 0.565839 1.858009 1.838353
v 0.434161 1.824398 1.820388
v 0.565839 1.824398 1.820388
v 0.434161 1.787928 1.809325
v 0.565839 1.787928 1.809325
vn -0.0000 1.0000 -0.0000
vn -0.0000 0.7444 0.6678
vn -1.0000 -0.0000 -0.0000
vn -0.0000 -0.0000 1.0000
vn 1.0000 -0.0000 -0.0000
vn -0.0000 -0.0000 -1.0000
vn -0.0000 -1.0000 -0.0000
vn -0.0000 -0.0980 -0.9952
vn -0.0000 -0.2903 -0.9569
vn -0.0000 -0.4714 -0.8819
vn -0.0000 -0.6344 -0.7730
vn -0.0000 -0.7730 -0.6344
vn -0.0000 -0.8819 -0.4714
vn -0.0000 -0.9569 -0.2903
vn -0.0000 -0.9952 -0.0980
vn -0.0000 -0.9952 0.0980
vn -0.0000 -0.9569 0.2903
vn -0.0000 -0.8819 0.4714
vn -0.0000 -0.7730 0.6344
vn -0.0000 -0.6344 0.7730
vn -0.0000 -0.4714 0.8819
vn -0.0000 -0.2903 0.9569
vn -0.0000 -0.0980 0.9952
vn -0.0000 0.0980 0.9952
vn -0.0000 0.2903 0.9569
vn -0.0000 0.4714 0.8819
vn -0.0000 0.6344 0.7730
vn -0.0000 0.7730 0.6344
vn -0.0000 0.8819 0.4714
vn -0.0000 0.9569 0.2903
vn -0.0000 0.9952 0.0980
vn -0.0000 0.9952 -0.0980
vn -0.0000 0.9569 -0.2903
vn -0.0000 0.8819 -0.4714
vn -0.0000 0.7730 -0.6344
vn -0.0000 0.6344 -0.7730
vn -0.0000 0.4714 -0.8819
vn -0.0000 0.2903 -0.9569
vn -0.0000 0.0980 -0.9952
vt 0.625000 0.500000
vt 0.875000 0.500000
vt 0.875000 0.750000
vt 0.625000 0.750000
vt 0.375000 0.750000
vt 0.625000 1.000000
vt 0.375000 1.000000
vt 0.375000 0.000000
vt 0.625000 0.000000
vt 0.625000 0.250000
vt 0.375000 0.250000
vt 0.375000 0.500000
vt 0.125000 0.500000
vt 0.125000 0.750000
vt 1.000000 0.500000
vt 1.000000 1.000000
vt 0.968750 1.000000
vt 0.968750 0.500000
vt 0.937500 1.000000
vt 0.937500 0.500000
vt 0.906250 1.000000
vt 0.906250 0.500000
vt 0.875000 1.000000
vt 0.843750 1.000000
vt 0.843750 0.500000
vt 0.812500 1.000000
vt 0.812500 0.500000
vt 0.781250 1.000000
vt 0.781250 0.500000
vt 0.750000 1.000000
vt 0.750000 0.500000
vt 0.718750 1.000000
vt 0.718750 0.500000
vt 0.687500 1.000000
vt 0.687500 0.500000
vt 0.656250 1.000000
vt 0.656250 0.500000
vt 0.593750 1.000000
vt 0.593750 0.500000
vt 0.562500 1.000000
vt 0.562500 0.500000
vt 0.531250 1.000000
vt 0.531250 0.500000
vt 0.500000 1.000000
vt 0.500000 0.500000
vt 0.468750 1.000000
vt 0.468750 0.500000
vt 0.437500 1.000000
vt 0.437500 0.500000
vt 0.406250 1.000000
vt 0.406250 0.500000
vt 0.343750 1.000000
vt 0.343750 0.500000
vt 0.312500 1.000000
vt 0.312500 0.500000
vt 0.281250 1.000000
vt 0.281250 0.500000
vt 0.250000 1.000000
vt 0.250000 0.500000
vt 0.218750 1.000000
vt 0.218750 0.500000
vt 0.187500 1.000000
vt 0.187500 0.500000
vt 0.156250 1.000000
vt 0.156250 0.500000
vt 0.125000 1.000000
vt 0.093750 1.000000
vt 0.093750 0.500000
vt 0.062500 1.000000
vt 0.062500 0.500000
vt 0.296822 0.485388
vt 0.250000 0.490000
vt 0.203178 0.485388
vt 0.158156 0.471731
vt 0.116663 0.449553
vt 0.080294 0.419706
vt 0.050447 0.383337
vt 0.028269 0.341844
vt 0.014612 0.296822
vt 0.010000 0.250000
vt 0.014612 0.203178
vt 0.028269 0.158156
vt 0.050447 0.116663
vt 0.080294 0.080294
vt 0.116663 0.050447
vt 0.158156 0.028269
vt 0.203178 0.014612
vt 0.250000 0.010000
vt 0.296822 0.014612
vt 0.341844 0.028269
vt 0.383337 0.050447
vt 0.419706 0.080294
vt 0.449553 0.116663
vt 0.471731 0.158156
vt 0.485388 0.203178
vt 0.490000 0.250000
vt 0.485388 0.296822
vt 0.471731 0.341844
vt 0.449553 0.383337
vt 0.419706 0.419706
vt 0.383337 0.449553
vt 0.341844 0.471731
vt 0.031250 1.000000
vt 0.031250 0.500000
vt 0.000000 1.000000
vt 0.000000 0.500000
vt 0.750000 0.490000
vt 0.796822 0.485388
vt 0.841844 0.471731
vt 0.883337 0.449553
vt 0.919706 0.419706
vt 0.949553 0.383337
vt 0.971731 0.341844
vt 0.985388 0.296822
vt 0.990000 0.250000
vt 0.985388 0.203178
vt 0.971731 0.158156
vt 0.949553 0.116663
vt 0.919706 0.080294
vt 0.883337 0.050447
vt 0.841844 0.028269
vt 0.796822 0.014612
vt 0.750000 0.010000
vt 0.703178 0.014612
vt 0.658156 0.028269
vt 0.616663 0.050447
vt 0.580294 0.080294
vt 0.550447 0.116663
vt 0.528269 0.158156
vt 0.514612 0.203178
vt 0.510000 0.250000
vt 0.514612 0.296822
vt 0.528269 0.341844
vt 0.550447 0.383337
vt 0.580294 0.419706
vt 0.616663 0.449553
vt 0.658156 0.471731
vt 0.703178 0.485388
s 0
usemtl Material.001
f 1/1/1 5/2/1 7/3/1 3/4/1
f 4/5/2 3/4/2 7/6/2 8/7/2
f 8/8/3 7/9/3 5/10/3 6/11/3
f 4/5/4 8/7/4 10/7/4 12/5/4
f 2/12/5 1/1/5 3/4/5 4/5/5
f 6/11/6 5/10/6 1/1/6 2/12/6
f 9/13/7 11/12/7 12/5/7 10/14/7
f 8/8/3 6/11/3 9/11/3 10/8/3
f 2/12/5 4/5/5 12/5/5 11/12/5
f 6/11/6 2/12/6 11/12/6 9/11/6
f 13/15/8 14/16/8 16/17/8 15/18/8
f 15/18/9 16/17/9 18/19/9 17/20/9
f 17/20/10 18/19/10 20/21/10 19/22/10
f 19/22/11 20/21/11 22/23/11 21/2/11
f 21/2/12 22/23/12 24/24/12 23/25/12
f 23/25/13 24/24/13 26/26/13 25/27/13
f 25/27/14 26/26/14 28/28/14 27/29/14
f 27/29/15 28/28/15 30/30/15 29/31/15
f 29/31/16 30/30/16 32/32/16 31/33/16
f 31/33/17 32/32/17 34/34/17 33/35/17
f 33/35/18 34/34/18 36/36/18 35/37/18
f 35/37/19 36/36/19 38/6/19 37/1/19
f 37/1/20 38/6/20 40/38/20 39/39/20
f 39/39/21 40/38/21 42/40/21 41/41/21
f 41/41/22 42/40/22 44/42/22 43/43/22
f 43/43/23 44/42/23 46/44/23 45/45/23
f 45/45/24 46/44/24 48/46/24 47/47/24
f 47/47/25 48/46/25 50/48/25 49/49/25
f 49/49/26 50/48/26 52/50/26 51/51/26
f 51/51/27 52/50/27 54/7/27 53/12/27
f 53/12/28 54/7/28 56/52/28 55/53/28
f 55/53/29 56/52/29 58/54/29 57/55/29
f 57/55/30 58/54/30 60/56/30 59/57/30
f 59/57/31 60/56/31 62/58/31 61/59/31
f 61/59/32 62/58/32 64/60/32 63/61/32
f 63/61/33 64/60/33 66/62/33 65/63/33
f 65/63/34 66/62/34 68/64/34 67/65/34
f 67/65/35 68/64/35 70/66/35 69/13/35
f 69/13/36 70/66/36 72/67/36 71/68/36
f 71/68/37 72/67/37 74/69/37 73/70/37
f 16/71/5 14/72/5 76/73/5 74/74/5 72/75/5 70/76/5 68/77/5 66/78/5 64/79/5 62/80/5 60/81/5 58/82/5 56/83/5 54/84/5 52/85/5 50/86/5 48/87/5 46/88/5 44/89/5 42/90/5 40/91/5 38/92/5 36/93/5 34/94/5 32/95/5 30/96/5 28/97/5 26/98/5 24/99/5 22/100/5 20/101/5 18/102/5
f 73/70/38 74/69/38 76/103/38 75/104/38
f 75/104/39 76/103/39 14/105/39 13/106/39
f 13/107/3 15/108/3 17/109/3 19/110/3 21/111/3 23/112/3 25/113/3 27/114/3 29/115/3 31/116/3 33/117/3 35/118/3 37/119/3 39/120/3 41/121/3 43/122/3 45/123/3 47/124/3 49/125/3 51/126/3 53/127/3 55/128/3 57/129/3 59/130/3 61/131/3 63/132/3 65/133/3 67/134/3 69/135/3 71/136/3 73/137/3 75/138/3
f 77/15/8 78/16/8 80/17/8 79/18/8
f 79/18/9 80/17/9 82/19/9 81/20/9
f 81/20/10 82/19/10 84/21/10 83/22/10
f 83/22/11 84/21/11 86/23/11 85/2/11
f 85/2/12 86/23/12 88/24/12 87/25/12
f 87/25/13 88/24/13 90/26/13 89/27/13
f 89/27/14 90/26/14 92/28/14 91/29/14
f 91/29/15 92/28/15 94/30/15 93/31/15
f 93/31/16 94/30/16 96/32/16 95/33/16
f 95/33/17 96/32/17 98/34/17 97/35/17
f 97/35/18 98/34/18 100/36/18 99/37/18
f 99/37/19 100/36/19 102/6/19 101/1/19
f 101/1/20 102/6/20 104/38/20 103/39/20
f 103/39/21 104/38/21 106/40/21 105/41/21
f 105/41/22 106/40/22 108/42/22 107/43/22
f 107/43/23 108/42/23 110/44/23 109/45/23
f 109/45/24 110/44/24 112/46/24 111/47/24
f 111/47/25 112/46/25 114/48/25 113/49/25
f 113/49/26 114/48/26 116/50/26 115/51/26
f 115/51/27 116/50/27 118/7/27 117/12/27
f 117/12/28 118/7/28 120/52/28 119/53/28
f 119/53/29 120/52/29 122/54/29 121/55/29
f 121/55/30 122/54/30 124/56/30 123/57/30
f 123/57/31 124/56/31 126/58/31 125/59/31
f 125/59/32 126/58/32 128/60/32 127/61/32
f 127/61/33 128/60/33 130/62/33 129/63/33
f 129/63/34 130/62/34 132/64/34 131/65/34
f 131/65/35 132/64/35 134/66/35 133/13/35
f 133/13/36 134/66/36 136/67/36 135/68/36
f 135/68/37 136/67/37 138/69/37 137/70/37
f 80/71/5 78/72/5 140/73/5 138/74/5 136/75/5 134/76/5 132/77/5 130/78/5 128/79/5 126/80/5 124/81/5 122/82/5 120/83/5 118/84/5 116/85/5 114/86/5 112/87/5 110/88/5 108/89/5 106/90/5 104/91/5 102/92/5 100/93/5 98/94/5 96/95/5 94/96/5 92/97/5 90/98/5 88/99/5 86/100/5 84/101/5 82/102/5
f 137/70/38 138/69/38 140/103/38 139/104/38
f 139/104/39 140/103/39 78/105/39 77/106/39
f 77/107/3 79/108/3 81/109/3 83/110/3 85/111/3 87/112/3 89/113/3 91/114/3 93/115/3 95/116/3 97/117/3 99/118/3 101/119/3 103/120/3 105/121/3 107/122/3 109/123/3 111/124/3 113/125/3 115/126/3 117/127/3 119/128/3 121/129/3 123/130/3 125/131/3 127/132/3 129/133/3 131/134/3 133/135/3 135/136/3 137/137/3 139/138/3
f 141/15/8 142/16/8 144/17/8 143/18/8
f 143/18/9 144/17/9 146/19/9 145/20/9
f 145/20/10 146/19/10 148/21/10 147/22/10
f 147/22/11 148/21/11 150/23/11 149/2/11
f 149/2/12 150/23/12 152/24/12 151/25/12
f 151/25/13 152/24/13 154/26/13 153/27/13
f 153/27/14 154/26/14 156/28/14 155/29/14
f 155/29/15 156/28/15 158/30/15 157/31/15
f 157/31/16 158/30/16 160/32/16 159/33/16
f 159/33/17 160/32/17 162/34/17 161/35/17
f 161/35/18 162/34/18 164/36/18 163/37/18
f 163/37/19 164/36/19 166/6/19 165/1/19
f 165/1/20 166/6/20 168/38/20 167/39/20
f 167/39/21 168/38/21 170/40/21 169/41/21
f 169/41/22 170/40/22 172/42/22 171/43/22
f 171/43/23 172/42/23 174/44/23 173/45/23
f 173/45/24 174/44/24 176/46/24 175/47/24
f 175/47/25 176/46/25 178/48/25 177/49/25
f 177/49/26 178/48/26 180/50/26 179/51/26
f 179/51/27 180/50/27 182/7/27 181/12/27
f 181/12/28 182/7/28 184/52/28 183/53/28
f 183/53/29 184/52/29 186/54/29 185/55/29
f 185/55/30 186/54/30 188/56/30 187/57/30
f 187/57/31 188/56/31 190/58/31 189/59/31
f 189/59/32 190/58/32 192/60/32 191/61/32
f 191/61/33 192/60/33 194/62/33 193/63/33
f 193/63/34 194/62/34 196/64/34 195/65/34
f 195/65/35 196/64/35 198/66/35 197/13/35
f 197/13/36 198/66/36 200/67/36 199/68/36
f 199/68/37 200/67/37 202/69/37 201/70/37
f 144/71/5 142/72/5 204/73/5 202/74/5 200/75/5 198/76/5 196/77/5 194/78/5 192/79/5 190/80/5 188/81/5 186/82/5 184/83/5 182/84/5 180/85/5 178/86/5 176/87/5 174/88/5 172/89/5 170/90/5 168/91/5 166/92/5 164/93/5 162/94/5 160/95/5 158/96/5 156/97/5 154/98/5 152/99/5 150/100/5 148/101/5 146/102/5
f 201/70/38 202/69/38 204/103/38 203/104/38
f 203/104/39 204/103/39 142/105/39 141/106/39
f 141/107/3 143/108/3 145/109/3 147/110/3 149/111/3 151/112/3 153/113/3 155/114/3 157/115/3 159/116/3 161/117/3 163/118/3 165/119/3 167/120/3 169/121/3 171/122/3 173/123/3 175/124/3 177/125/3 179/126/3 181/127/3 183/128/3 185/129/3 187/130/3 189/131/3 191/132/3 193/133/3 195/134/3 197/135/3 199/136/3 201/137/3 203/138/3
f 205/15/8 206/16/8 208/17/8 207/18/8
f 207/18/9 208/17/9 210/19/9 209/20/9
f 209/20/10 210/19/10 212/21/10 211/22/10
f 211/22/11 212/21/11 214/23/11 213/2/11
f 213/2/12 214/23/12 216/24/12 215/25/12
f 215/25/13 216/24/13 218/26/13 217/27/13
f 217/27/14 218/26/14 220/28/14 219/29/14
f 219/29/15 220/28/15 222/30/15 221/31/15
f 221/31/16 222/30/16 224/32/16 223/33/16
f 223/33/17 224/32/17 226/34/17 225/35/17
f 225/35/18 226/34/18 228/36/18 227/37/18
f 227/37/19 228/36/19 230/6/19 229/1/19
f 229/1/20 230/6/20 232/38/20 231/39/20
f 231/39/21 232/38/21 234/40/21 233/41/21
f 233/41/22 234/40/22 236/42/22 235/43/22
f 235/43/23 236/42/23 238/44/23 237/45/23
f 237/45/24 238/44/24 240/46/24 239/47/24
f 239/47/25 240/46/25 242/48/25 241/49/25
f 241/49/26 242/48/26 244/50/26 243/51/26
f 243/51/27 244/50/27 246/7/27 245/12/27
f 245/12/28 246/7/28 248/52/28 247/53/28
f 247/53/29 248/52/29 250/54/29 249/55/29
f 249/55/30 250/54/30 252/56/30 251/57/30
f 251/57/31 252/56/31 254/58/31 253/59/31
f 253/59/32 254/58/32 256/60/32 255/61/32
f 255/61/33 256/60/33 258/62/33 257/63/33
f 257/63/34 258/62/34 260/64/34 259/65/34
f 259/65/35 260/64/35 262/66/35 261/13/35
f 261/13/36 262/66/36 264/67/36 263/68/36
f 263/68/37 264/67/37 266/69/37 265/70/37
f 208/71/5 206/72/5 268/73/5 266/74/5 264/75/5 262/76/5 260/77/5 258/78/5 256/79/5 254/80/5 252/81/5 250/82/5 248/83/5 246/84/5 244/85/5 242/86/5 240/87/5 238/88/5 236/89/5 234/90/5 232/91/5 230/92/5 228/93/5 226/94/5 224/95/5 222/96/5 220/97/5 218/98/5 216/99/5 214/100/5 212/101/5 210/102/5
f 265/70/38 266/69/38 268/103/38 267/104/38
f 267/104/39 268/103/39 206/105/39 205/106/39
f 205/107/3 207/108/3 209/109/3 211/110/3 213/111/3 215/112/3 217/113/3 219/114/3 221/115/3 223/116/3 225/117/3 227/118/3 229/119/3 231/120/3 233/121/3 235/122/3 237/123/3 239/124/3 241/125/3 243/126/3 245/127/3 247/128/3 249/129/3 251/130/3 253/131/3 255/132/3 257/133/3 259/134/3 261/135/3 263/136/3 265/137/3 267/138/3
