# Blender 4.0.2
# www.blender.org
mtllib bullet.mtl
o Sphere
v 0.000000 0.009567 -0.023097
v 0.000000 -0.023097 -0.009567
v 0.004784 0.023097 -0.008285
v 0.008839 0.017678 -0.015309
v 0.011548 0.009567 -0.020003
v 0.012500 0.000000 -0.021651
v 0.011548 -0.009567 -0.020003
v 0.008839 -0.017678 -0.015309
v 0.004784 -0.023097 -0.008285
v 0.000000 0.025000 0.000000
v 0.008285 0.023097 -0.004784
v 0.015309 0.017678 -0.008839
v 0.020003 0.009567 -0.011548
v 0.021651 0.000000 -0.012500
v 0.020003 -0.009567 -0.011548
v 0.015309 -0.017678 -0.008839
v 0.008285 -0.023097 -0.004784
v 0.009567 0.023097 0.000000
v 0.017678 0.017678 0.000000
v 0.023097 0.009567 0.000000
v 0.025000 0.000000 0.000000
v 0.023097 -0.009567 0.000000
v 0.017678 -0.017678 0.000000
v 0.009567 -0.023097 0.000000
v 0.008285 0.023097 0.004784
v 0.015309 0.017678 0.008839
v 0.020003 0.009567 0.011548
v 0.021651 0.000000 0.012500
v 0.020003 -0.009567 0.011548
v 0.015309 -0.017678 0.008839
v 0.008285 -0.023097 0.004784
v 0.004784 0.023097 0.008285
v 0.008839 0.017678 0.015309
v 0.011548 0.009567 0.020003
v 0.012500 0.000000 0.021651
v 0.011548 -0.009567 0.020003
v 0.008839 -0.017678 0.015309
v 0.004784 -0.023097 0.008285
v -0.000000 0.023097 0.009567
v -0.000000 0.017678 0.017678
v -0.000000 0.009567 0.023097
v -0.000000 0.000000 0.025000
v -0.000000 -0.009567 0.023097
v -0.000000 -0.017678 0.017678
v -0.000000 -0.023097 0.009567
v -0.004784 0.023097 0.008285
v -0.008839 0.017678 0.015309
v -0.011548 0.009567 0.020003
v -0.012500 0.000000 0.021651
v -0.011548 -0.009567 0.020003
v -0.008839 -0.017678 0.015309
v -0.004784 -0.023097 0.008285
v 0.000000 -0.025000 0.000000
v -0.008285 0.023097 0.004784
v -0.015309 0.017678 0.008839
v -0.020003 0.009567 0.011548
v -0.021651 0.000000 0.012500
v -0.020003 -0.009567 0.011548
v -0.015309 -0.017678 0.008839
v -0.008285 -0.023097 0.004784
v -0.009567 0.023097 -0.000000
v -0.017678 0.017678 -0.000000
v -0.023097 0.009567 -0.000000
v -0.025000 0.000000 -0.000000
v -0.023097 -0.009567 -0.000000
v -0.017678 -0.017678 -0.000000
v -0.009567 -0.023097 -0.000000
v -0.008285 0.023097 -0.004784
v -0.015309 0.017678 -0.008839
v -0.020003 0.009567 -0.011548
v -0.021651 0.000000 -0.012500
v -0.020003 -0.009567 -0.011548
v -0.015309 -0.017678 -0.008839
v -0.008285 -0.023097 -0.004784
v -0.004784 0.023097 -0.008285
v -0.008839 0.017678 -0.015309
v -0.011548 0.009567 -0.020003
v -0.012500 0.000000 -0.021651
v -0.011548 -0.009567 -0.020003
v -0.008839 -0.017678 -0.015309
v -0.004784 -0.023097 -0.008285
v 0.000000 0.023097 -0.009567
v 0.000000 0.017678 -0.017678
v 0.000000 0.000000 -0.025000
v 0.000000 -0.009567 -0.023097
v 0.000000 -0.017678 -0.017678
vn -0.0000 -1.0000 -0.0000
vn -0.0000 -0.9122 -0.4097
vn 0.2049 -0.9122 -0.3548
vn -0.0000 -0.6913 -0.7226
vn -0.0000 -0.3718 -0.9283
vn 0.4642 -0.3718 -0.8040
vn 0.3613 -0.6913 -0.6258
vn -0.0000 -0.0000 -1.0000
vn -0.0000 0.3718 -0.9283
vn 0.4642 0.3718 -0.8040
vn 0.5000 -0.0000 -0.8660
vn -0.0000 0.6913 -0.7226
vn -0.0000 0.9122 -0.4097
vn 0.2049 0.9122 -0.3548
vn 0.3613 0.6913 -0.6258
vn -0.0000 1.0000 -0.0000
vn 0.3548 0.9122 -0.2049
vn 0.6258 0.6913 -0.3613
vn 0.6258 -0.6913 -0.3613
vn 0.3548 -0.9122 -0.2049
vn 0.8660 -0.0000 -0.5000
vn 0.8040 -0.3718 -0.4642
vn 0.8040 0.3718 -0.4642
vn 0.7226 -0.6913 -0.0000
vn 0.4097 -0.9122 -0.0000
vn 1.0000 -0.0000 -0.0000
vn 0.9283 -0.3718 -0.0000
vn 0.7226 0.6913 -0.0000
vn 0.9283 0.3718 -0.0000
vn 0.4097 0.9122 -0.0000
vn 0.3548 0.9122 0.2049
vn 0.3548 -0.9122 0.2049
vn 0.8040 -0.3718 0.4642
vn 0.6258 -0.6913 0.3613
vn 0.8040 0.3718 0.4642
vn 0.8660 -0.0000 0.5000
vn 0.6258 0.6913 0.3613
vn 0.4642 -0.3718 0.8040
vn 0.3613 -0.6913 0.6258
vn 0.4642 0.3718 0.8040
vn 0.5000 -0.0000 0.8660
vn 0.2049 0.9122 0.3548
vn 0.3613 0.6913 0.6258
vn 0.2049 -0.9122 0.3548
vn -0.0000 -0.6913 0.7226
vn -0.0000 -0.9122 0.4097
vn -0.0000 -0.0000 1.0000
vn -0.0000 -0.3718 0.9283
vn -0.0000 0.6913 0.7226
vn -0.0000 0.3718 0.9283
vn -0.0000 0.9122 0.4097
vn -0.5000 -0.0000 0.8660
vn -0.4642 -0.3718 0.8040
vn -0.3613 0.6913 0.6258
vn -0.4642 0.3718 0.8040
vn -0.2049 0.9122 0.3548
vn -0.2049 -0.9122 0.3548
vn -0.3613 -0.6913 0.6258
vn -0.3548 -0.9122 0.2049
vn -0.8040 -0.3718 0.4642
vn -0.6258 -0.6913 0.3613
vn -0.8040 0.3718 0.4642
vn -0.8660 -0.0000 0.5000
vn -0.3548 0.9122 0.2049
vn -0.6258 0.6913 0.3613
vn -0.9283 0.3718 -0.0000
vn -1.0000 -0.0000 -0.0000
vn -0.4097 0.9122 -0.0000
vn -0.7226 0.6913 -0.0000
vn -0.7226 -0.6913 -0.0000
vn -0.4097 -0.9122 -0.0000
vn -0.9283 -0.3718 -0.0000
vn -0.6258 -0.6913 -0.3613
vn -0.3548 -0.9122 -0.2049
vn -0.8660 -0.0000 -0.5000
vn -0.8040 -0.3718 -0.4642
vn -0.6258 0.6913 -0.3613
vn -0.8040 0.3718 -0.4642
vn -0.3548 0.9122 -0.2049
vn -0.3613 0.6913 -0.6258
vn -0.4642 0.3718 -0.8040
vn -0.2049 0.9122 -0.3548
vn -0.2049 -0.9122 -0.3548
vn -0.4642 -0.3718 -0.8040
vn -0.3613 -0.6913 -0.6258
vn -0.5000 -0.0000 -0.8660
vt 0.708333 0.000000
vt 0.750000 0.125000
vt 0.666667 0.125000
vt 0.750000 0.250000
vt 0.750000 0.375000
vt 0.666667 0.375000
vt 0.666667 0.250000
vt 0.750000 0.500000
vt 0.750000 0.625000
vt 0.666667 0.625000
vt 0.666667 0.500000
vt 0.750000 0.750000
vt 0.750000 0.875000
vt 0.666667 0.875000
vt 0.666667 0.750000
vt 0.708333 1.000000
vt 0.583333 0.875000
vt 0.583333 0.750000
vt 0.583333 0.250000
vt 0.583333 0.125000
vt 0.583333 0.500000
vt 0.583333 0.375000
vt 0.583333 0.625000
vt 0.625000 1.000000
vt 0.625000 0.000000
vt 0.500000 0.250000
vt 0.500000 0.125000
vt 0.500000 0.500000
vt 0.500000 0.375000
vt 0.500000 0.750000
vt 0.500000 0.625000
vt 0.541667 1.000000
vt 0.500000 0.875000
vt 0.541667 0.000000
vt 0.458333 1.000000
vt 0.416667 0.875000
vt 0.458333 0.000000
vt 0.416667 0.125000
vt 0.416667 0.375000
vt 0.416667 0.250000
vt 0.416667 0.625000
vt 0.416667 0.500000
vt 0.416667 0.750000
vt 0.333333 0.375000
vt 0.333333 0.250000
vt 0.333333 0.625000
vt 0.333333 0.500000
vt 0.333333 0.875000
vt 0.333333 0.750000
vt 0.333333 0.125000
vt 0.375000 1.000000
vt 0.375000 0.000000
vt 0.250000 0.250000
vt 0.250000 0.125000
vt 0.250000 0.500000
vt 0.250000 0.375000
vt 0.250000 0.750000
vt 0.250000 0.625000
vt 0.291667 1.000000
vt 0.250000 0.875000
vt 0.291667 0.000000
vt 0.166667 0.500000
vt 0.166667 0.375000
vt 0.166667 0.750000
vt 0.166667 0.625000
vt 0.208333 1.000000
vt 0.166667 0.875000
vt 0.208333 0.000000
vt 0.166667 0.125000
vt 0.166667 0.250000
vt 0.125000 0.000000
vt 0.083333 0.125000
vt 0.083333 0.375000
vt 0.083333 0.250000
vt 0.083333 0.625000
vt 0.083333 0.500000
vt 0.083333 0.875000
vt 0.083333 0.750000
vt 0.125000 1.000000
vt 0.000000 0.625000
vt 0.000000 0.500000
vt 0.000000 0.875000
vt 0.000000 0.750000
vt 0.000000 0.250000
vt 0.000000 0.125000
vt 0.000000 0.375000
vt 0.041667 1.000000
vt 0.041667 0.000000
vt 1.000000 0.125000
vt 1.000000 0.250000
vt 0.916667 0.250000
vt 0.916667 0.125000
vt 1.000000 0.375000
vt 1.000000 0.500000
vt 0.916667 0.500000
vt 0.916667 0.375000
vt 1.000000 0.625000
vt 1.000000 0.750000
vt 0.916667 0.750000
vt 0.916667 0.625000
vt 1.000000 0.875000
vt 0.958333 1.000000
vt 0.916667 0.875000
vt 0.958333 0.000000
vt 0.833333 0.750000
vt 0.833333 0.625000
vt 0.875000 1.000000
vt 0.833333 0.875000
vt 0.875000 0.000000
vt 0.833333 0.125000
vt 0.833333 0.375000
vt 0.833333 0.250000
vt 0.833333 0.500000
vt 0.791667 0.000000
vt 0.791667 1.000000
s 1
usemtl Material.001
f 53/1/1 2/2/2 9/3/3
f 86/4/4 85/5/5 7/6/6 8/7/7
f 84/8/8 1/9/9 5/10/10 6/11/11
f 83/12/12 82/13/13 3/14/14 4/15/15
f 2/2/2 86/4/4 8/7/7 9/3/3
f 85/5/5 84/8/8 6/11/11 7/6/6
f 1/9/9 83/12/12 4/15/15 5/10/10
f 82/13/13 10/16/16 3/14/14
f 4/15/15 3/14/14 11/17/17 12/18/18
f 9/3/3 8/7/7 16/19/19 17/20/20
f 7/6/6 6/11/11 14/21/21 15/22/22
f 5/10/10 4/15/15 12/18/18 13/23/23
f 3/14/14 10/24/16 11/17/17
f 53/25/1 9/3/3 17/20/20
f 8/7/7 7/6/6 15/22/22 16/19/19
f 6/11/11 5/10/10 13/23/23 14/21/21
f 17/20/20 16/19/19 23/26/24 24/27/25
f 15/22/22 14/21/21 21/28/26 22/29/27
f 13/23/23 12/18/18 19/30/28 20/31/29
f 11/17/17 10/32/16 18/33/30
f 53/34/1 17/20/20 24/27/25
f 16/19/19 15/22/22 22/29/27 23/26/24
f 14/21/21 13/23/23 20/31/29 21/28/26
f 12/18/18 11/17/17 18/33/30 19/30/28
f 18/33/30 10/35/16 25/36/31
f 53/37/1 24/27/25 31/38/32
f 23/26/24 22/29/27 29/39/33 30/40/34
f 21/28/26 20/31/29 27/41/35 28/42/36
f 19/30/28 18/33/30 25/36/31 26/43/37
f 24/27/25 23/26/24 30/40/34 31/38/32
f 22/29/27 21/28/26 28/42/36 29/39/33
f 20/31/29 19/30/28 26/43/37 27/41/35
f 30/40/34 29/39/33 36/44/38 37/45/39
f 28/42/36 27/41/35 34/46/40 35/47/41
f 26/43/37 25/36/31 32/48/42 33/49/43
f 31/38/32 30/40/34 37/45/39 38/50/44
f 29/39/33 28/42/36 35/47/41 36/44/38
f 27/41/35 26/43/37 33/49/43 34/46/40
f 25/36/31 10/51/16 32/48/42
f 53/52/1 31/38/32 38/50/44
f 38/50/44 37/45/39 44/53/45 45/54/46
f 36/44/38 35/47/41 42/55/47 43/56/48
f 34/46/40 33/49/43 40/57/49 41/58/50
f 32/48/42 10/59/16 39/60/51
f 53/61/1 38/50/44 45/54/46
f 37/45/39 36/44/38 43/56/48 44/53/45
f 35/47/41 34/46/40 41/58/50 42/55/47
f 33/49/43 32/48/42 39/60/51 40/57/49
f 43/56/48 42/55/47 49/62/52 50/63/53
f 41/58/50 40/57/49 47/64/54 48/65/55
f 39/60/51 10/66/16 46/67/56
f 53/68/1 45/54/46 52/69/57
f 44/53/45 43/56/48 50/63/53 51/70/58
f 42/55/47 41/58/50 48/65/55 49/62/52
f 40/57/49 39/60/51 46/67/56 47/64/54
f 45/54/46 44/53/45 51/70/58 52/69/57
f 53/71/1 52/69/57 60/72/59
f 51/70/58 50/63/53 58/73/60 59/74/61
f 49/62/52 48/65/55 56/75/62 57/76/63
f 47/64/54 46/67/56 54/77/64 55/78/65
f 52/69/57 51/70/58 59/74/61 60/72/59
f 50/63/53 49/62/52 57/76/63 58/73/60
f 48/65/55 47/64/54 55/78/65 56/75/62
f 46/67/56 10/79/16 54/77/64
f 57/76/63 56/75/62 63/80/66 64/81/67
f 55/78/65 54/77/64 61/82/68 62/83/69
f 60/72/59 59/74/61 66/84/70 67/85/71
f 58/73/60 57/76/63 64/81/67 65/86/72
f 56/75/62 55/78/65 62/83/69 63/80/66
f 54/77/64 10/87/16 61/82/68
f 53/88/1 60/72/59 67/85/71
f 59/74/61 58/73/60 65/86/72 66/84/70
f 67/89/71 66/90/70 73/91/73 74/92/74
f 65/93/72 64/94/67 71/95/75 72/96/76
f 63/97/66 62/98/69 69/99/77 70/100/78
f 61/101/68 10/102/16 68/103/79
f 53/104/1 67/89/71 74/92/74
f 66/90/70 65/93/72 72/96/76 73/91/73
f 64/94/67 63/97/66 70/100/78 71/95/75
f 62/98/69 61/101/68 68/103/79 69/99/77
f 70/100/78 69/99/77 76/105/80 77/106/81
f 68/103/79 10/107/16 75/108/82
f 53/109/1 74/92/74 81/110/83
f 73/91/73 72/96/76 79/111/84 80/112/85
f 71/95/75 70/100/78 77/106/81 78/113/86
f 69/99/77 68/103/79 75/108/82 76/105/80
f 74/92/74 73/91/73 80/112/85 81/110/83
f 72/96/76 71/95/75 78/113/86 79/111/84
f 53/114/1 81/110/83 2/2/2
f 80/112/85 79/111/84 85/5/5 86/4/4
f 78/113/86 77/106/81 1/9/9 84/8/8
f 76/105/80 75/108/82 82/13/13 83/12/12
f 81/110/83 80/112/85 86/4/4 2/2/2
f 79/111/84 78/113/86 84/8/8 85/5/5
f 77/106/81 76/105/80 83/12/12 1/9/9
f 75/108/82 10/115/16 82/13/13
